<svg xmlns="http://www.w3.org/2000/svg" width="1024" height="512" viewBox="0 0 1024 512">
  <defs>
    <linearGradient id="panelBase" x1="0" y1="0" x2="0" y2="1">
      <stop offset="0%" stop-color="#1d252e"/>
      <stop offset="100%" stop-color="#0c1016"/>
    </linearGradient>
    <linearGradient id="healthFill" x1="0" y1="1" x2="0" y2="0">
      <stop offset="0%" stop-color="#65111b"/>
      <stop offset="52%" stop-color="#c92538"/>
      <stop offset="100%" stop-color="#ff9aa3"/>
    </linearGradient>
    <linearGradient id="staminaFill" x1="0" y1="1" x2="0" y2="0">
      <stop offset="0%" stop-color="#13341d"/>
      <stop offset="58%" stop-color="#2c8247"/>
      <stop offset="100%" stop-color="#7fe89e"/>
    </linearGradient>
    <linearGradient id="magickaFill" x1="0" y1="1" x2="0" y2="0">
      <stop offset="0%" stop-color="#18284d"/>
      <stop offset="58%" stop-color="#3b63cf"/>
      <stop offset="100%" stop-color="#9fbaff"/>
    </linearGradient>
    <linearGradient id="edgeLight" x1="0" y1="0" x2="1" y2="1">
      <stop offset="0%" stop-color="#ffffff" stop-opacity="0.26"/>
      <stop offset="100%" stop-color="#ffffff" stop-opacity="0.02"/>
    </linearGradient>
    <linearGradient id="healthCoreGlow" x1="0" y1="1" x2="0" y2="0">
      <stop offset="0%" stop-color="#ffffff" stop-opacity="0.00"/>
      <stop offset="55%" stop-color="#ffd7db" stop-opacity="0.08"/>
      <stop offset="100%" stop-color="#ffffff" stop-opacity="0.18"/>
    </linearGradient>
    <linearGradient id="wingGlow" x1="0" y1="1" x2="0" y2="0">
      <stop offset="0%" stop-color="#ffffff" stop-opacity="0.00"/>
      <stop offset="100%" stop-color="#ffffff" stop-opacity="0.10"/>
    </linearGradient>
    <clipPath id="healthShape">
      <path d="M270,442 C328,314 407,237 512,228 C617,237 696,314 754,442 L718,490 L306,490 Z"/>
    </clipPath>
    <clipPath id="staminaShape">
      <path d="M42,332 C60,271 109,223 184,180 L244,184 C193,236 162,294 145,362 C136,398 128,438 123,486 L45,486 Z"/>
    </clipPath>
    <clipPath id="magickaShape">
      <path d="M982,332 C964,271 915,223 840,180 L780,184 C831,236 862,294 879,362 C888,398 896,438 901,486 L979,486 Z"/>
    </clipPath>
  </defs>

  <rect x="0" y="0" width="1024" height="512" fill="#0a0d12"/>

  <g opacity="0.94">
    <path d="M270,442 C328,314 407,237 512,228 C617,237 696,314 754,442 L718,490 L306,490 Z" fill="url(#panelBase)" stroke="url(#edgeLight)" stroke-width="3.5"/>
    <path d="M42,332 C60,271 109,223 184,180 L244,184 C193,236 162,294 145,362 C136,398 128,438 123,486 L45,486 Z" fill="url(#panelBase)" stroke="url(#edgeLight)" stroke-width="2.5" opacity="0.92"/>
    <path d="M982,332 C964,271 915,223 840,180 L780,184 C831,236 862,294 879,362 C888,398 896,438 901,486 L979,486 Z" fill="url(#panelBase)" stroke="url(#edgeLight)" stroke-width="2.5" opacity="0.92"/>
  </g>

  <g clip-path="url(#healthShape)">
    <rect x="256" y="0" width="256" height="512" fill="#14181e" opacity="0.58"/>
    <rect x="384" y="0" width="128" height="256" fill="url(#healthFill)" opacity="0.94"/>
    <rect x="384" y="256" width="128" height="256" fill="url(#healthFill)"/>
    <rect x="346" y="236" width="332" height="210" rx="140" fill="url(#healthCoreGlow)" opacity="0.75"/>
  </g>

  <g clip-path="url(#staminaShape)">
    <rect x="0" y="0" width="128" height="341.33" fill="#121920" opacity="0.50"/>
    <rect x="128" y="0" width="128" height="341.33" fill="url(#staminaFill)" opacity="0.90"/>
    <rect x="0" y="341.33" width="128" height="170.67" fill="#121920" opacity="0.50"/>
    <rect x="128" y="341.33" width="128" height="170.67" fill="url(#staminaFill)" opacity="0.88"/>
    <rect x="70" y="170" width="126" height="256" rx="90" fill="url(#wingGlow)" opacity="0.45"/>
  </g>

  <g clip-path="url(#magickaShape)">
    <rect x="512" y="0" width="128" height="341.33" fill="#121924" opacity="0.50"/>
    <rect x="640" y="0" width="128" height="341.33" fill="url(#magickaFill)" opacity="0.90"/>
    <rect x="512" y="341.33" width="128" height="170.67" fill="#121924" opacity="0.50"/>
    <rect x="640" y="341.33" width="128" height="170.67" fill="url(#magickaFill)" opacity="0.88"/>
    <rect x="828" y="170" width="126" height="256" rx="90" fill="url(#wingGlow)" opacity="0.45"/>
  </g>

  <rect x="768" y="0" width="128" height="512" fill="#0e1318" opacity="0.24"/>
  <rect x="896" y="0" width="128" height="512" fill="#0e1318" opacity="0.14"/>
</svg>
